<?xml version="1.0" encoding="utf-8"?>
<!-- Generator: Adobe Illustrator 16.0.0, SVG Export Plug-In . SVG Version: 6.00 Build 0)  -->
<!DOCTYPE svg PUBLIC "-//W3C//DTD SVG 1.1//EN" "http://www.w3.org/Graphics/SVG/1.1/DTD/svg11.dtd">
<svg version="1.1" id="Layer_1" xmlns="http://www.w3.org/2000/svg" xmlns:xlink="http://www.w3.org/1999/xlink" x="0px" y="0px"
	 width="100px" height="50px" viewBox="0 0 100 50" enable-background="new 0 0 100 50" xml:space="preserve">
<g>
	<g>
		<path fill="#4E8EF7" d="M13.09,39.506c-0.428,0-0.855-0.164-1.183-0.49c-0.652-0.651-0.652-1.71,0-2.363l16.795-16.796
			c0.653-0.652,1.711-0.652,2.364,0c0.656,0.652,0.656,1.711,0.001,2.363L14.272,39.016C13.945,39.342,13.519,39.506,13.09,39.506z"
			/>
		<path fill="#4E8EF7" d="M21.495,39.465c-0.317,0-0.641-0.093-0.925-0.279l-0.102-0.07c-0.767-0.513-0.974-1.55-0.461-2.314
			c0.511-0.769,1.549-0.979,2.319-0.466l0.1,0.068c0.765,0.511,0.974,1.548,0.462,2.318C22.565,39.203,22.036,39.465,21.495,39.465z
			"/>
		<path fill="#4FD696" d="M7.917,36.324c-0.429,0-0.856-0.166-1.183-0.492c-0.651-0.652-0.651-1.713,0.001-2.364l4.621-4.611
			c0.655-0.652,1.713-0.652,2.366,0.002c0.65,0.654,0.65,1.712-0.002,2.359l-4.624,4.615C8.772,36.158,8.345,36.324,7.917,36.324z"
			/>
		<path fill="#4E8EF7" d="M27.58,33.381c-0.428,0-0.856-0.163-1.181-0.488c-0.653-0.653-0.653-1.715,0-2.365l2.263-2.264
			c0.653-0.653,1.712-0.653,2.365,0c0.651,0.652,0.651,1.709,0,2.363l-2.265,2.266C28.435,33.218,28.007,33.381,27.58,33.381z"/>
		<path fill="#4FD696" d="M4.649,31.241c-0.426,0-0.854-0.162-1.179-0.487c-0.654-0.652-0.656-1.711-0.003-2.362L3.5,28.356
			c0.653-0.653,1.71-0.655,2.364-0.003c0.654,0.65,0.655,1.71,0.003,2.365l-0.034,0.03C5.505,31.075,5.079,31.241,4.649,31.241z"/>
		<path fill="#4E8EF7" d="M17.052,27.197c-0.43,0-0.858-0.163-1.183-0.488c-0.653-0.654-0.653-1.711,0-2.366l9.66-9.659
			c0.653-0.653,1.71-0.653,2.363,0c0.653,0.651,0.653,1.709,0,2.362l-9.66,9.663C17.905,27.034,17.478,27.197,17.052,27.197z"/>
		<path fill="#4FD696" d="M9.197,26.694c-0.429,0-0.857-0.161-1.182-0.489c-0.652-0.651-0.653-1.709,0-2.362l12.424-12.434
			c0.653-0.654,1.71-0.654,2.365-0.002c0.652,0.652,0.654,1.711,0.001,2.365L10.378,26.205C10.051,26.533,9.624,26.694,9.197,26.694
			z"/>
		<path fill="#4FD696" d="M4.451,23.083c-0.429,0-0.856-0.162-1.182-0.488c-0.652-0.652-0.652-1.71,0-2.363l4.854-4.855
			c0.651-0.654,1.712-0.654,2.365,0c0.652,0.652,0.652,1.71-0.002,2.363l-4.854,4.855C5.305,22.921,4.878,23.083,4.451,23.083z"/>
		<path fill="#4FD696" d="M13.475,14.052c-0.924,0-1.671-0.749-1.671-1.672v-0.166c0-0.924,0.747-1.671,1.671-1.671
			c0.922,0,1.67,0.747,1.67,1.671v0.166C15.145,13.304,14.397,14.052,13.475,14.052z"/>
	</g>
	<g>
		<path fill="#3A405B" d="M44.19,16.704c2.755,0,5.017,0.799,6.789,2.399c1.77,1.598,2.657,3.674,2.657,6.223
			c0,2.55-0.887,4.628-2.657,6.237c-1.772,1.607-4.034,2.409-6.789,2.409h-6.076V16.704H44.19z M42.321,30.775h1.869
			c1.606,0,2.869-0.492,3.788-1.478c0.917-0.982,1.377-2.303,1.377-3.96c0-1.656-0.46-2.976-1.377-3.959
			c-0.919-0.983-2.182-1.477-3.788-1.477h-1.869V30.775z"/>
		<path fill="#3A405B" d="M60.006,20.246v2.559c0.985-1.805,2.297-2.707,3.937-2.707v4.28h-1.034c-0.966,0-1.694,0.23-2.176,0.688
			c-0.484,0.46-0.727,1.263-0.727,2.412v6.493h-4.205V20.246H60.006z"/>
		<path fill="#3A405B" d="M66.548,32.177c-1.213-1.312-1.82-2.991-1.82-5.044c0-2.049,0.607-3.733,1.82-5.054
			c1.213-1.319,2.695-1.98,4.44-1.98c1.746,0,3.088,0.647,4.022,1.944v-1.797h4.205v13.726h-4.205v-1.992
			c-1.019,1.443-2.378,2.166-4.084,2.166S67.761,33.489,66.548,32.177z M74.101,29.618c0.606-0.591,0.91-1.427,0.91-2.508
			c0-1.083-0.304-1.915-0.91-2.498c-0.608-0.583-1.305-0.872-2.092-0.872c-0.786,0-1.483,0.294-2.092,0.885
			c-0.605,0.59-0.909,1.426-0.909,2.507c0,1.083,0.304,1.916,0.909,2.499c0.608,0.58,1.306,0.872,2.092,0.872
			C72.796,30.504,73.492,30.209,74.101,29.618z"/>
		<path fill="#3A405B" d="M88.417,20.246v3.495H86.67v10.231h-4.205V23.741h-1.28v-3.495h1.28v-0.517
			c0-1.738,0.461-3.009,1.389-3.812c0.927-0.802,2.381-1.205,4.366-1.205v3.566c-0.558,0-0.955,0.106-1.191,0.32
			c-0.239,0.213-0.358,0.59-0.358,1.131v0.517H88.417z"/>
		<path fill="#3A405B" d="M96.018,30.406h1.5v3.565h-2.14c-1.542,0-2.734-0.339-3.577-1.021c-0.847-0.679-1.268-1.848-1.268-3.507
			v-5.704h-1.28v-3.495h1.28v-3.345h4.207v3.345h2.754v3.495H94.74v5.704C94.74,30.086,95.164,30.406,96.018,30.406z"/>
	</g>
</g>
</svg>
